<svg width="243" height="243" viewBox="0 0 243 243" fill="none" xmlns="http://www.w3.org/2000/svg">
<circle cx="121.5" cy="121.5" r="121.5" fill="#131313"/>
<path d="M69.2782 175.413C65.5883 175.413 62.3828 174.593 59.662 172.953C56.9784 171.35 54.798 169.319 53.1207 166.859C51.3316 164.287 50.0271 161.454 49.2071 158.361C48.4244 155.304 48.033 152.304 48.033 149.359V140.246C48.033 135.289 46.8775 131.73 44.5667 129.568C42.2558 127.406 38.7336 126.325 34 126.325V115.144C38.7336 115.144 42.2558 114.063 44.5667 111.901C46.8775 109.739 48.033 106.142 48.033 101.11V91.9974C48.033 88.8292 48.4803 85.568 49.3748 82.2135C50.2694 78.8216 51.6857 75.8772 53.6239 73.3799C55.2265 71.2181 57.3325 69.4477 59.9416 68.0686C62.5506 66.6895 65.6628 66 69.2782 66L71.1791 74.7776C68.9055 74.7031 67.1537 75.1876 65.9237 76.2312C64.6938 77.2376 63.7993 78.5794 63.2401 80.2567C62.681 81.9339 62.3456 83.8161 62.2337 85.9034C62.1593 87.9534 62.122 89.9847 62.122 91.9974V101.11C62.122 105.546 61.0224 109.478 58.8234 112.907C56.6616 116.336 53.2884 118.945 48.7039 120.734C53.3257 122.523 56.7174 125.114 58.8793 128.506C61.041 131.897 62.122 135.811 62.122 140.246V149.359C62.122 151.372 62.2337 153.404 62.4575 155.454C62.7183 157.541 63.1842 159.423 63.8551 161.1C64.526 162.777 65.4393 164.119 66.5946 165.126C67.7873 166.169 69.3156 166.654 71.1791 166.579L69.2782 175.413ZM172.821 166.579C174.647 166.654 176.138 166.169 177.293 165.126C178.486 164.119 179.418 162.777 180.089 161.1C180.759 159.423 181.226 157.541 181.487 155.454C181.747 153.404 181.878 151.372 181.878 149.359V140.246C181.878 138.085 182.12 136.035 182.605 134.097C183.127 132.158 183.909 130.351 184.953 128.673C185.997 126.996 187.301 125.505 188.866 124.201C190.469 122.859 192.37 121.722 194.569 120.79C192.78 120.045 191.196 119.15 189.817 118.107C188.438 117.063 187.245 115.908 186.239 114.64C184.748 112.777 183.648 110.708 182.94 108.435C182.232 106.124 181.878 103.682 181.878 101.11V91.9974C181.878 89.9847 181.822 87.9534 181.71 85.9034C181.636 83.8161 181.319 81.9339 180.759 80.2567C180.2 78.5794 179.306 77.2376 178.076 76.2312C176.846 75.1876 175.094 74.7031 172.821 74.7776L174.722 66C178.709 66 182.064 66.82 184.785 68.46C187.507 70.0627 189.724 72.2245 191.438 74.9453C193.078 77.4053 194.234 80.1634 194.905 83.2198C195.612 86.2389 195.967 89.1647 195.967 91.9974V101.11C195.967 103.198 196.154 105.043 196.526 106.646C196.936 108.248 197.55 109.609 198.371 110.727C199.452 112.255 200.962 113.373 202.9 114.081C204.875 114.789 207.241 115.144 210 115.144V126.325C206.906 126.325 204.335 126.773 202.284 127.667C200.234 128.524 198.687 129.922 197.645 131.86C197.085 132.904 196.656 134.134 196.358 135.55C196.098 136.929 195.967 138.495 195.967 140.246V149.359C195.967 152.267 195.538 155.286 194.681 158.417C193.823 161.548 192.557 164.343 190.88 166.803C189.201 169.375 187.003 171.443 184.282 173.009C181.598 174.611 178.411 175.413 174.722 175.413L172.821 166.579Z" fill="#6A9955"/>
<path d="M148.78 145.781C147.774 147.011 146.395 148.26 144.643 149.527C142.891 150.795 140.822 151.931 138.437 152.938C136.014 153.981 133.312 154.82 130.33 155.454C127.348 156.087 124.143 156.404 120.714 156.404C117.732 156.404 114.918 156.05 112.272 155.342C109.663 154.671 107.259 153.683 105.06 152.379C102.898 151.037 100.922 149.397 99.1334 147.459C97.3815 145.52 95.8906 143.303 94.6607 140.806C93.2443 138.047 92.1634 134.935 91.418 131.469C90.7097 128.002 90.3557 124.238 90.3557 120.175V109.105C90.3557 105.229 90.7097 101.632 91.418 98.3151C92.1262 94.9606 93.1325 91.9229 94.437 89.2021C95.667 86.7793 97.0834 84.5989 98.6861 82.6608C100.326 80.7226 102.115 79.0453 104.053 77.629C106.327 76.0263 108.805 74.8149 111.489 73.9949C114.173 73.1749 117.005 72.7649 119.987 72.7649C124.572 72.7649 128.56 73.3427 131.952 74.4981C135.381 75.6535 138.269 77.3121 140.617 79.4739C142.966 81.6729 144.792 84.3379 146.097 87.4688C147.438 90.5997 148.314 94.122 148.724 98.0356H133.405C133.144 96.0602 132.734 94.3083 132.175 92.7802C131.653 91.252 130.927 89.9661 129.995 88.9225C128.951 87.767 127.628 86.9098 126.025 86.3507C124.46 85.7543 122.578 85.4561 120.378 85.4561C119.186 85.4561 118.03 85.6425 116.912 86.0153C115.794 86.388 114.75 86.9284 113.781 87.6365C112.514 88.6057 111.359 89.8729 110.315 91.4384C109.309 93.0037 108.47 94.8487 107.799 96.9733C107.277 98.6133 106.867 100.44 106.569 102.452C106.308 104.465 106.178 106.646 106.178 108.994V120.175C106.178 123.12 106.364 125.803 106.737 128.226C107.147 130.649 107.706 132.792 108.414 134.656C108.861 135.737 109.365 136.743 109.924 137.675C110.52 138.569 111.172 139.37 111.88 140.079C113.073 141.271 114.452 142.185 116.018 142.818C117.62 143.415 119.428 143.731 121.441 143.769C122.671 143.769 123.882 143.675 125.075 143.489C126.268 143.303 127.386 143.042 128.429 142.706C129.473 142.371 130.386 141.998 131.169 141.588C131.989 141.141 132.604 140.675 133.014 140.191L133.07 125.431H119.596V113.69H148.724L148.78 145.781Z" fill="#569CD6"/>
</svg>
